<svg width="92" height="76" viewBox="0 0 92 76" fill="none" xmlns="http://www.w3.org/2000/svg">
<path d="M81.2591 58.9712C80.2949 57.5093 78.351 57.1828 76.8892 58.1625L76.0805 58.6446L67.6516 43.9018C66.9984 42.9376 66.0343 42.2844 64.899 42.2844H55.988V35.4885H61.8198C63.6082 35.4885 65.0545 34.0266 65.0545 32.2538C65.0545 30.4653 63.5927 29.0191 61.8198 29.0191H55.988V24.9757C55.988 23.1873 54.5262 21.741 52.7533 21.741C50.996 21.741 49.5497 23.1717 49.5186 24.9135C36.4865 26.0643 26.1914 37.0747 26.1914 50.4023C26.1914 64.4919 37.6995 76 51.7891 76C60.2958 76 68.0248 71.8633 72.768 65.2851C74.5564 66.918 76.0805 66.1248 76.5626 65.7983L80.4505 63.3722C81.8967 62.3769 82.2233 60.433 81.2591 58.9712ZM51.7736 69.8261C41.0897 69.8261 32.5053 61.2417 32.5053 50.5578C32.5053 40.636 39.9078 32.5337 49.5186 31.414V45.3792C49.5186 47.1676 50.9804 48.6139 52.7533 48.6139H62.9551L69.0357 59.1889C65.7232 65.6272 59.1138 69.8261 51.7736 69.8261Z" fill="url(#paint0_linear_2565_17416)"/>
<path d="M52.5823 18.4751C57.7609 18.4751 61.8199 14.2607 61.8199 9.23757C61.8199 4.21445 57.7765 0 52.5823 0C47.5592 0 43.3447 4.21445 43.3447 9.23757C43.3603 14.2607 47.4037 18.4751 52.5823 18.4751ZM52.5823 6.15838C54.1996 6.15838 55.6615 7.44915 55.4904 9.0665C55.4904 10.6839 54.1996 11.9746 52.5823 11.9746C50.9649 11.9746 49.6742 10.6839 49.6742 9.0665C49.6742 7.4647 50.9649 6.15838 52.5823 6.15838Z" fill="url(#paint1_linear_2565_17416)"/>
<path d="M24.4605 67H4.5395C4.24156 67 4 67.8955 4 69C4 70.1045 4.24156 71 4.5395 71H24.4605C24.7584 71 25 70.1045 25 69C25 67.8955 24.7584 67 24.4605 67Z" fill="url(#paint2_linear_2565_17416)"/>
<path d="M14.6146 72H0.385354C0.172542 72 0 72.8955 0 74C0 75.1045 0.172542 76 0.385354 76H14.6146C14.8275 76 15 75.1045 15 74C15 72.8955 14.8275 72 14.6146 72Z" fill="url(#paint3_linear_2565_17416)"/>
<defs>
<linearGradient id="paint0_linear_2565_17416" x1="-4.5" y1="18" x2="114" y2="66" gradientUnits="userSpaceOnUse">
<stop stop-color="#9B1C31"/>
<stop offset="1" stop-color="#D3723E"/>
</linearGradient>
<linearGradient id="paint1_linear_2565_17416" x1="14.5" y1="15.5" x2="249.5" y2="16" gradientUnits="userSpaceOnUse">
<stop stop-color="#9B1C31"/>
<stop offset="1" stop-color="#D3723E"/>
</linearGradient>
<linearGradient id="paint2_linear_2565_17416" x1="-12.5" y1="64.5" x2="21.7066" y2="55.0936" gradientUnits="userSpaceOnUse">
<stop stop-color="#9B1C31"/>
<stop offset="0.0001" stop-color="#9B1C31"/>
<stop offset="1" stop-color="#FEB548"/>
</linearGradient>
<linearGradient id="paint3_linear_2565_17416" x1="-17.5" y1="72" x2="6.19472" y2="59.9495" gradientUnits="userSpaceOnUse">
<stop stop-color="#9B1C31"/>
<stop offset="0.0001" stop-color="#9B1C31"/>
<stop offset="1" stop-color="#FEB548"/>
</linearGradient>
</defs>
</svg>
