<svg width="809" height="687" viewBox="0 0 809 687" fill="none" xmlns="http://www.w3.org/2000/svg">
<g clip-path="url(#clip0_3054_17210)">
<path d="M202.769 616.393C190.96 618.336 178.922 615.348 169.81 608.986C160.543 602.517 154.66 593.106 152.46 583.334C150.394 574.163 152.006 565.37 155.751 556.69C158.829 549.555 162.102 542.48 165.3 535.382C169.899 542.5 174.543 549.6 179.176 556.705C173.341 560.101 168.767 564.846 166.571 570.712C162.8 580.781 166.944 591.866 177.621 597.86C186.32 602.742 197.401 603.558 207.1 600.711C209.586 604.827 212.03 608.96 214.425 613.112C210.725 614.69 206.604 615.761 202.769 616.393ZM132.275 467.052C127.605 457.935 124.371 447.73 129.705 438.27C131.4 435.265 134.151 432.481 137.354 430.855C137.962 430.546 137.778 430.641 138.11 430.507C138.337 430.416 138.568 430.33 138.798 430.245C138.832 430.233 138.857 430.223 138.878 430.215C138.902 430.209 138.922 430.202 138.95 430.193C139.729 429.955 140.136 429.853 140.788 429.763C142.419 429.54 144.26 429.559 146.118 429.858C157.485 431.689 164.532 441.163 168.427 449.362C174.957 463.108 174.926 478.832 173.155 493.313C172.36 499.809 171.187 506.329 168.998 512.613C167.772 516.129 166.376 519.606 164.923 523.065C163.466 520.771 162.014 518.477 160.572 516.178C150.477 500.07 140.834 483.758 132.275 467.052M180.662 558.983C185.473 566.366 190.268 573.755 194.983 581.178C198.717 587.056 202.401 592.959 206.005 598.893C202.156 599.969 197.854 600.088 193.937 599.393C181.284 597.151 171.915 588.009 171.536 577.373C171.294 570.622 174.78 563.622 180.662 558.983ZM188.911 554.679C200.052 551.323 212.082 554.788 219.972 562.112C229.52 570.975 232.639 583.157 229.81 594.657C228.476 600.075 225.74 605.565 220.816 609.446C220.566 609.643 220.306 609.833 220.044 610.021C217.782 606.119 215.479 602.235 213.137 598.366C213.952 597.963 214.75 597.534 215.524 597.074C220.404 594.167 223.506 589.969 224.139 585.103C224.341 584.33 224.36 583.511 224.154 582.685C223.359 579.502 219.588 577.454 215.728 578.108C211.868 578.763 209.384 581.874 210.179 585.057C210.859 587.786 213.73 589.675 216.968 589.747C215.989 592.243 214.268 594.476 211.823 596.201C203.531 582.587 194.829 569.146 186.078 555.725C186.989 555.325 187.934 554.973 188.911 554.679M221.558 612.627C221.493 612.514 221.426 612.401 221.362 612.288C222.378 611.744 223.362 611.171 224.294 610.562C229.713 607.019 233.279 601.889 235.206 596.471C239.281 585.014 237.206 572.135 228.507 562.504C224.243 557.783 218.752 553.98 211.949 552.051C206.211 550.424 199.987 550.41 194.09 551.42C190.912 551.964 187.824 552.815 184.917 553.947C179.38 545.461 173.834 536.979 168.369 528.461C168.661 527.795 168.962 527.132 169.251 526.465C171.367 521.569 173.445 516.653 175.205 511.661C177.238 505.894 178.399 499.944 179.225 493.982C180.291 486.281 180.672 478.489 180.196 470.746C179.801 464.337 178.883 457.836 176.55 451.692C173.195 442.861 167.173 432.931 156.481 428.79C148.211 425.587 138.437 426.997 131.227 431.44C123.807 436.011 120.553 443.573 120.554 451.009C120.554 456.006 121.988 460.946 124.247 465.564C128.122 473.484 132.427 481.277 136.821 489.009C144.718 502.9 153.203 516.543 161.899 530.097C157.639 539.802 153.056 549.412 148.923 559.153C145.069 568.238 143.991 577.759 146.631 587.207C149.423 597.206 156.186 606.674 166.286 612.807C176.903 619.255 190.19 620.89 202.904 618.473C207.075 617.68 211.417 616.519 215.489 614.957C217.929 619.218 220.319 623.499 222.637 627.807C226.272 634.557 230.137 641.348 232.133 648.585C233.256 652.663 234.925 659.743 229.857 662.275C229.7 662.354 229.481 662.403 229.438 662.413C229.256 662.434 228.7 662.479 228.405 662.47C227.375 662.436 226.353 662.182 225.437 661.801C224.727 661.505 224.091 661.144 223.508 660.735C226.06 659.492 227.502 657.014 226.871 654.487C226.077 651.305 222.304 649.255 218.444 649.91C214.585 650.565 212.1 653.675 212.895 656.858C212.948 657.073 213.018 657.282 213.098 657.487C213.105 657.525 213.098 657.564 213.116 657.601C213.176 657.722 213.245 657.836 213.308 657.955C213.328 657.993 213.349 658.031 213.37 658.069C215.894 662.72 220.603 665.731 227.041 664.929C232.298 664.276 238.286 661.518 239.313 656.863C240.766 650.29 237.589 642.919 234.677 636.9C230.703 628.68 226.145 620.623 221.558 612.627" fill="#9B1C31"/>
<path d="M412.123 154.856L407.54 155.284L413.214 196.629C410.069 195.618 405.859 195.655 401.37 196.986C392.596 199.588 386.091 206.139 386.843 211.619C387.595 217.097 395.318 219.429 404.093 216.827C412.867 214.224 419.371 207.673 418.62 202.195C418.617 202.185 418.616 202.178 418.614 202.168H418.615L412.123 154.856Z" fill="#9B1C31"/>
<path d="M206.631 421.364L216.496 466.968C212.913 466.029 208.238 466.317 203.367 468.059C193.841 471.464 187.18 479.123 188.487 485.167C189.794 491.21 198.575 493.348 208.1 489.943C217.625 486.538 224.287 478.878 222.98 472.835C222.977 472.825 222.974 472.817 222.973 472.806H222.974L214.423 433.278L258.746 413.237L266.654 449.799C263.073 448.859 258.398 449.148 253.525 450.889C244.001 454.295 237.338 461.954 238.646 467.998C239.953 474.041 248.734 476.179 258.259 472.774C267.785 469.368 274.446 461.709 273.139 455.666C273.137 455.656 273.133 455.648 273.131 455.638L273.132 455.637L260.672 398.316L206.631 421.364Z" fill="#9B1C31"/>
<path d="M458.842 133.475L485.215 162.989C482.274 163.357 479.079 164.913 476.361 167.556C471.048 172.724 469.574 180.085 473.069 183.996C476.563 187.907 483.703 186.888 489.017 181.719C494.33 176.551 495.803 169.19 492.309 165.28C492.303 165.273 492.296 165.268 492.292 165.262V165.261L469.433 139.679L492.374 112.652L513.518 136.314C510.576 136.682 507.382 138.237 504.664 140.881C499.351 146.049 497.877 153.409 501.372 157.321C504.866 161.231 512.006 160.213 517.319 155.043C522.632 149.875 524.106 142.516 520.611 138.604C520.606 138.598 520.6 138.593 520.594 138.586H520.595L487.402 101.506L458.842 133.475Z" fill="#9B1C31"/>
<path d="M341.164 745.003C353.822 744.595 376.725 725.92 381.883 714.354V714.354C384.908 707.571 386.093 700.112 385.32 692.725L384.153 681.575C382.78 668.458 375.996 656.509 365.435 648.609L318.5 613.5L808.641 0.000549316H0.175312C-0.251479 4.68736 0.101517 9.43218 1.22847 13.9849C5.18955 29.9801 30.3277 119.742 122.414 120.18C187.543 120.489 247.331 80.0975 311.414 71.1101C354.958 65.0031 397.434 51.1322 439.039 62.6242C488.429 76.267 536.258 109.616 529.887 149.151C523.822 186.781 472.217 210.355 423.504 219.024C381.922 226.424 338.816 227.256 296.678 232.556C254.54 237.857 211.63 248.443 181.588 271.448C151.546 294.452 138.348 332.379 160.255 360.161C188.2 395.597 255.814 399.827 292.648 430.242C310.12 444.669 319.319 464.658 317.474 484.187C316.759 491.77 314.119 499.72 306.854 504.963C299.59 510.206 286.669 511.415 279.836 505.848C275.265 502.125 274.469 496.578 270.944 492.249C262.521 481.91 240.802 482.454 228.771 490.488C216.74 498.521 212.28 511.152 209.69 523.142C203.828 550.279 205.62 580.665 228.992 601.704C261.01 630.529 317.908 631.908 345 663.5C362.29 683.661 348.402 719.207 335 741C333.003 744.248 336.103 745.167 341.164 745.003Z" fill="#9B1C31"/>
<path d="M139.927 7.91244C166.931 9.25052 195.454 9.71325 222.289 8.22899C253.377 6.50933 280.349 2.30295 310.414 0.000292055H99.5023C99.2397 0.687667 99.553 1.3946 100.578 2.11864C105.4 5.52349 123.61 7.10382 139.927 7.91244Z" fill="#FEB548"/>
<path d="M809.27 704L809.27 4.00031H404.605C423.543 8.66714 442.012 15.4477 459.405 22.955C484.349 33.7203 508.743 46.349 526.84 64.1345C566.007 102.626 567.232 163.919 529.623 203.453C505.771 228.527 470.158 243.842 434.867 256.825C399.576 269.81 362.826 281.536 333.052 301.852C303.277 322.167 281.159 353.45 286.914 384.963C293.972 423.607 340.335 454.368 336.239 493.3C334.011 514.487 317.049 532.27 303.307 550.264C289.565 568.259 278.334 590.735 288.472 610.289C298.827 630.262 326.646 638.769 348.955 650.319C387.982 670.524 385.5 704 385.5 704H809.27Z" fill="#FEB548"/>
<path d="M570.797 77.469C572.027 79.9964 573.397 82.7598 576.312 84.0402C580.346 85.8124 585.619 83.7016 587.926 80.4473C590.234 77.1941 590.309 73.2112 590.091 69.4461C588.7 45.4309 577.45 21.9645 559.119 3.3219C558.012 2.19562 556.94 1.08741 555.895 0.00013061H490.676C526.45 17.9112 555.194 45.4109 570.797 77.469Z" fill="#FEF2E4"/>
<path d="M582.204 0.000244141C605.594 19.2164 625.409 40.8992 632.754 67.0386C645.596 112.733 616.389 159.724 578.689 194.845C555.497 216.45 528.767 235.467 499.453 251.218C470.214 266.926 438.44 279.397 410.37 296.493C382.299 313.589 354.536 335.812 350.285 364.375C346.637 388.88 344.525 417.266 365.941 434.517C370.269 438.003 375.568 440.878 381.529 441.725C394.41 443.558 406.637 435.467 412.905 426.009C419.172 416.55 421.358 405.65 426.21 395.641C436.891 373.606 461.841 356.29 490.324 352.915C518.808 349.54 549.546 361.058 563.641 381.747C577.736 402.436 572.998 431.07 551.503 446.848C526.759 465.009 489.392 463.482 458.523 473.392C428.42 483.057 404.459 504.498 394.279 529.781C384.098 555.064 387.584 583.705 402.767 607.22C411.759 621.145 424.48 633.163 434.943 646.371C460.696 678.881 480.092 685.001 475.489 721.566C475.261 723.379 476.636 725.022 478.464 725.047L560.951 726.167C570.939 726.302 577.572 714.285 573.392 705.213C558.086 671.99 545.077 620.658 543.984 595.991C540.218 511.005 595.235 420.891 691.312 389.997C710.151 383.941 730.075 380.197 748.363 373.082C772.627 363.644 792.761 348.643 808.641 330.74V0.000244141H582.204Z" fill="#FFDAAF"/>
<path d="M808.641 0.000332398H686.143C702.437 25.4643 705.052 58.3662 699.8 87.7113C690.298 140.807 659.593 193.011 606.82 224.42C590.895 233.899 573.199 241.401 558.458 252.101C543.715 262.803 531.824 277.83 532.771 294.008C533.718 310.185 551.752 325.908 571.091 323.083C604.717 318.17 606.314 270.89 639.51 264.282C662.486 259.708 683.461 280.762 682.355 300.233C681.249 319.704 665.618 336.344 649.853 350.868C646.159 354.271 642.264 357.884 641.232 362.371C640.201 366.859 643.42 372.34 648.94 372.725C652.167 372.949 655.166 371.445 657.838 369.933C691.839 350.682 716.037 320.022 723.613 286.588C733.275 243.953 717.715 196.214 744.696 158.983C748.537 153.68 754.18 148.304 761.664 148.063C771.245 147.755 777.968 155.983 780.236 163.666C786.08 183.444 775.881 203.7 767.752 222.921C759.622 242.142 753.837 264.672 767.077 281.853C768.96 284.295 771.416 286.683 774.798 287.456C778.615 288.328 782.624 286.937 786.08 285.343C794.885 281.283 802.322 275.875 808.641 269.575V0.000332398Z" fill="#192A51"/>
<path d="M783.567 93.5763C806.418 103.493 786.135 135.862 761.708 126.785C735.49 117.042 758.006 82.4828 783.567 93.5763Z" fill="#FEF2E4"/>
</g>
<defs>
<clipPath id="clip0_3054_17210">
<rect width="809" height="687" fill="white"/>
</clipPath>
</defs>
</svg>
