<svg width="151" height="121" viewBox="0 0 151 121" fill="none" xmlns="http://www.w3.org/2000/svg">
<path d="M150.984 51.5059C151.036 51.054 150.95 50.5819 150.7 50.1597L142.416 36.124C139.575 31.3837 136.894 28.6155 131.528 28.1474C131.353 28.1013 131.168 28.0764 130.977 28.0764H36.4821C32.9081 28.0764 30 30.9842 30 34.5586V70.7657C30 76.6196 34.9073 79.4258 38.658 80.4278C38.9097 87.3602 44.6243 92.9232 51.6171 92.9232C58.0315 92.9232 63.3698 88.2402 64.4021 82.1135H116.715C117.748 88.2402 123.087 92.9232 129.503 92.9232C135.917 92.9232 141.255 88.2402 142.288 82.1135H148.839C150.033 82.1135 151 81.146 151 79.9527V51.7622C151 51.6752 150.994 51.5901 150.984 51.5059ZM142.471 58.439C142.471 57.2477 143.441 56.2783 144.632 56.2783H146.679V60.5322H142.471V58.439ZM145.414 49.7052H127.008L121.634 38.9478H139.065L145.414 49.7052ZM34.3214 54.0266H36.6396V60.532H34.3214V54.0266ZM34.3214 49.7052V38.9108H105.456C107.841 38.9108 109.27 39.7529 110.228 41.7167L114.081 49.7052H34.3214ZM51.6171 88.6021C46.8476 88.6021 42.9675 84.7217 42.9675 79.9522C42.9675 75.1835 46.8476 71.3037 51.6171 71.3037C56.385 71.3037 60.2643 75.1835 60.2643 79.9522C60.2643 84.7217 56.385 88.6021 51.6171 88.6021ZM129.503 88.6021C124.733 88.6021 120.853 84.7217 120.853 79.9522C120.853 75.1835 124.733 71.3037 129.503 71.3037C134.271 71.3037 138.15 75.1835 138.15 79.9522C138.15 84.7217 134.271 88.6021 129.503 88.6021ZM142.288 77.7923C141.257 71.6656 135.918 66.9822 129.503 66.9822C123.087 66.9822 117.747 71.6656 116.715 77.7923H64.4024C63.3706 71.6656 58.032 66.9822 51.6171 66.9822C45.8097 66.9822 40.8816 70.8183 39.2335 76.0894C37.2135 75.4614 34.3214 73.9989 34.3214 70.7659V64.8537H36.6396C39.0223 64.8537 40.961 62.9152 40.961 60.5322V54.0269H117.472C118.666 54.0269 119.633 53.0594 119.633 51.8662V51.7624C119.633 51.4375 119.56 51.1164 119.419 50.8236L114.116 39.8302C112.418 36.3528 109.505 34.5893 105.456 34.5893H34.3214V34.5588C34.3214 33.3675 35.2908 32.3981 36.4821 32.3981H129.818C132.701 32.3981 134.453 33.0331 136.023 34.6264H118.139C117.39 34.6264 116.695 35.0139 116.301 35.6508C115.907 36.2874 115.871 37.0828 116.206 37.7526L123.528 52.4107C123.77 53.3403 124.615 54.0266 125.62 54.0266H139.889C138.811 55.1847 138.15 56.7356 138.15 58.439V62.6929C138.15 63.8862 139.117 64.8537 140.31 64.8537H146.679V77.7923H142.288Z" fill="url(#paint0_linear_2565_17415)"/>
<path d="M129.501 60.532H49.7164C48.5231 60.532 47.5557 61.4994 47.5557 62.6927C47.5557 63.886 48.5231 64.8534 49.7164 64.8534H129.501C130.695 64.8534 131.662 63.886 131.662 62.6927C131.662 61.4994 130.695 60.532 129.501 60.532Z" fill="url(#paint1_linear_2565_17415)"/>
<path d="M55.8534 77.7918C54.6601 77.7918 53.6926 78.7593 53.6926 79.9526C53.6926 81.098 52.7614 82.0298 51.6165 82.0298C50.471 82.0298 49.5392 81.098 49.5392 79.9526C49.5392 78.8077 50.471 77.8761 51.6165 77.8761C52.8097 77.8761 53.7772 76.9087 53.7772 75.7154C53.7772 74.5221 52.8097 73.5547 51.6165 73.5547C48.0883 73.5547 45.2178 76.4247 45.2178 79.9526C45.2178 83.4807 48.0883 86.3512 51.6165 86.3512C55.1441 86.3512 58.0141 83.4807 58.0141 79.9526C58.0141 78.7593 57.0466 77.7918 55.8534 77.7918Z" fill="url(#paint2_linear_2565_17415)"/>
<path d="M133.739 77.7918C132.546 77.7918 131.578 78.7593 131.578 79.9526C131.578 81.098 130.647 82.0298 129.502 82.0298C128.357 82.0298 127.425 81.098 127.425 79.9526C127.425 78.8077 128.357 77.8761 129.502 77.8761C130.695 77.8761 131.663 76.9087 131.663 75.7154C131.663 74.5221 130.695 73.5547 129.502 73.5547C125.974 73.5547 123.104 76.4247 123.104 79.9526C123.104 83.4807 125.974 86.3512 129.502 86.3512C133.03 86.3512 135.9 83.4807 135.9 79.9526C135.9 78.7593 134.932 77.7918 133.739 77.7918Z" fill="url(#paint3_linear_2565_17415)"/>
<path d="M24.4605 35.0793H4.5395C4.24156 35.0793 4 36.2013 4 37.585C4 38.9688 4.24156 40.0907 4.5395 40.0907H24.4605C24.7584 40.0907 25 38.9688 25 37.585C25 36.2013 24.7584 35.0793 24.4605 35.0793Z" fill="url(#paint4_linear_2565_17415)"/>
<path d="M14.6146 41.3435H0.385354C0.172542 41.3435 0 42.4654 0 43.8492C0 45.2329 0.172542 46.3548 0.385354 46.3548H14.6146C14.8275 46.3548 15 45.2329 15 43.8492C15 42.4654 14.8275 41.3435 14.6146 41.3435Z" fill="url(#paint5_linear_2565_17415)"/>
<defs>
<linearGradient id="paint0_linear_2565_17415" x1="90.5" y1="28.0764" x2="155.239" y2="140.268" gradientUnits="userSpaceOnUse">
<stop stop-color="#9B1C31"/>
<stop offset="0.0001" stop-color="#9B1C31"/>
<stop offset="1" stop-color="#FEB548"/>
</linearGradient>
<linearGradient id="paint1_linear_2565_17415" x1="89.6088" y1="60.532" x2="140.981" y2="69.7485" gradientUnits="userSpaceOnUse">
<stop stop-color="#9B1C31"/>
<stop offset="0.0001" stop-color="#9B1C31"/>
<stop offset="1" stop-color="#FEB548"/>
</linearGradient>
<linearGradient id="paint2_linear_2565_17415" x1="51.6159" y1="73.5547" x2="79.325" y2="99.0352" gradientUnits="userSpaceOnUse">
<stop stop-color="#9B1C31"/>
<stop offset="0.0001" stop-color="#9B1C31"/>
<stop offset="1" stop-color="#FEB548"/>
</linearGradient>
<linearGradient id="paint3_linear_2565_17415" x1="129.502" y1="73.5547" x2="149.844" y2="94.0257" gradientUnits="userSpaceOnUse">
<stop stop-color="#9B1C31"/>
<stop offset="0.0001" stop-color="#9B1C31"/>
<stop offset="1" stop-color="#FEB548"/>
</linearGradient>
<linearGradient id="paint4_linear_2565_17415" x1="-12.5" y1="31.9473" x2="22.6021" y2="24.2426" gradientUnits="userSpaceOnUse">
<stop stop-color="#9B1C31"/>
<stop offset="0.0001" stop-color="#9B1C31"/>
<stop offset="1" stop-color="#FEB548"/>
</linearGradient>
<linearGradient id="paint5_linear_2565_17415" x1="-17.5" y1="41.3435" x2="8.10407" y2="30.9498" gradientUnits="userSpaceOnUse">
<stop stop-color="#9B1C31"/>
<stop offset="0.0001" stop-color="#9B1C31"/>
<stop offset="1" stop-color="#FEB548"/>
</linearGradient>
</defs>
</svg>
